<?xml version="1.0"?>
<svg xmlns="http://www.w3.org/2000/svg" xmlns:xlink="http://www.w3.org/1999/xlink" version="1.1" id="Capa_1" x="0px" y="0px" viewBox="0 0 384 384" style="enable-background:new 0 0 384 384;" xml:space="preserve" width="512px" height="512px" class=""><g><circle style="fill:#3FB51A" cx="192" cy="192" r="192" data-original="#E05B49" class="" data-old_color="#498417"/><path style="opacity: 0.1;fill:#000000" d="M299.64,84.79c-1.56-1.72-3.84-2.8-6.359-2.8H90.72  c-4.8,0-8.72,3.92-8.72,8.72v202.56c0,2.28,0.88,4.36,2.36,5.92l0.52,0.52l82.648,82.684C175.548,383.415,183.703,384,192,384  c106.039,0,192-85.961,192-192c0-8.275-0.583-16.41-1.599-24.409L300,85.19L299.64,84.79z" data-original="#000000" class="active-path" data-old_color="opacity: 0.1#000000"/><path style="fill:#EBF0F3;" d="M293.281,82H90.719C85.902,82,82,85.904,82,90.719v202.563c0,4.815,3.902,8.718,8.719,8.718h202.562  c4.814,0,8.719-3.903,8.719-8.718V90.719C302,85.904,298.096,82,293.281,82z" data-original="#EBF0F3"/><polygon style="fill:#64798A;" points="97.998,98 97.998,230.992 140.42,230.992 243.576,230.992 285.998,230.992 285.998,98 " data-original="#64798A"/><g>
	<polygon style="fill:#3A556A;" points="97.998,98 97.998,105.934 140.42,105.934 243.576,105.934 285.998,105.934 285.998,98  " data-original="#3A556A" class=""/>
	<polygon style="fill:#3A556A;" points="140.42,230.992 140.42,261.607 157.279,261.607 226.717,261.607 243.576,261.607    243.576,230.992  " data-original="#3A556A" class=""/>
</g><polyline style="fill:#2F4859;" points="157.279,261.607 157.279,284.933 226.717,284.933 226.717,261.607 " data-original="#2F4859"/><rect x="109.12" y="112.92" style="fill:#FCD462;" width="14.156" height="30.076" data-original="#FCD462"/><rect x="106.896" y="117.88" style="fill:#F6C358" width="16.276" height="30.076" data-original="#F6C358" class=""/><rect x="106.896" y="112.92" style="fill:#FCD462;" width="16.276" height="30.076" data-original="#FCD462"/><rect x="137.68" y="117.88" style="fill:#F6C358" width="16.276" height="30.076" data-original="#F6C358" class=""/><rect x="137.68" y="112.92" style="fill:#FCD462;" width="16.276" height="30.076" data-original="#FCD462"/><rect x="168.48" y="117.88" style="fill:#F6C358" width="16.276" height="30.076" data-original="#F6C358" class=""/><rect x="168.48" y="112.92" style="fill:#FCD462;" width="16.276" height="30.076" data-original="#FCD462"/><rect x="199.252" y="117.88" style="fill:#F6C358" width="16.276" height="30.076" data-original="#F6C358" class=""/><rect x="199.252" y="112.92" style="fill:#FCD462;" width="16.276" height="30.076" data-original="#FCD462"/><rect x="230.04" y="117.88" style="fill:#F6C358" width="16.276" height="30.076" data-original="#F6C358" class=""/><rect x="230.04" y="112.92" style="fill:#FCD462;" width="16.276" height="30.076" data-original="#FCD462"/><rect x="260.84" y="117.88" style="fill:#F6C358" width="16.276" height="30.076" data-original="#F6C358" class=""/><rect x="260.84" y="112.92" style="fill:#FCD462;" width="16.276" height="30.076" data-original="#FCD462"/></g> </svg>
